<?xml version="1.0" encoding="UTF-8" standalone="no"?>
<!-- Created with Inkscape (http://www.inkscape.org/) -->

<svg
   width="794.66931"
   height="447.45825"
   viewBox="0 0 210.25626 118.39"
   version="1.1"
   id="svg1"
   xml:space="preserve"
   inkscape:version="1.3.2 (091e20e, 2023-11-25, custom)"
   sodipodi:docname="backing.svg"
   xmlns:inkscape="http://www.inkscape.org/namespaces/inkscape"
   xmlns:sodipodi="http://sodipodi.sourceforge.net/DTD/sodipodi-0.dtd"
   xmlns="http://www.w3.org/2000/svg"
   xmlns:svg="http://www.w3.org/2000/svg"><sodipodi:namedview
     id="namedview1"
     pagecolor="#ffffff"
     bordercolor="#000000"
     borderopacity="0.25"
     inkscape:showpageshadow="2"
     inkscape:pageopacity="0.0"
     inkscape:pagecheckerboard="0"
     inkscape:deskcolor="#d1d1d1"
     inkscape:document-units="mm"
     showguides="true"
     inkscape:zoom="1.4964281"
     inkscape:cx="321.76622"
     inkscape:cy="194.7972"
     inkscape:window-width="2560"
     inkscape:window-height="1373"
     inkscape:window-x="1911"
     inkscape:window-y="-9"
     inkscape:window-maximized="1"
     inkscape:current-layer="layer1"><sodipodi:guide
       position="11.053196,277.4251"
       orientation="1,0"
       id="guide1"
       inkscape:locked="false" /><sodipodi:guide
       position="198.05152,248.07071"
       orientation="1,0"
       id="guide2"
       inkscape:locked="false" /><sodipodi:guide
       position="150.39595,289.20309"
       orientation="0,-1"
       id="guide3"
       inkscape:locked="false" /><sodipodi:guide
       position="124.30316,192.26113"
       orientation="0,-1"
       id="guide4"
       inkscape:locked="false" /><sodipodi:guide
       position="105.12813,59.194997"
       orientation="1,0"
       id="guide5"
       inkscape:locked="false" /><sodipodi:guide
       position="104.68048,240.64303"
       orientation="0,-1"
       id="guide6"
       inkscape:locked="false" /><sodipodi:guide
       position="104.68048,209.11272"
       orientation="0,-1"
       id="guide7"
       inkscape:locked="false" /><inkscape:page
       x="0"
       y="0"
       width="210.25626"
       height="118.39"
       id="page21"
       margin="0 0 181.68507"
       bleed="0" /><sodipodi:guide
       position="50.544297,82.56482"
       orientation="1,0"
       id="guide23"
       inkscape:locked="false" /><sodipodi:guide
       position="43.034982,67.214636"
       orientation="1,0"
       id="guide24"
       inkscape:locked="false" /></sodipodi:namedview><defs
     id="defs1"><linearGradient
       id="swatch7"
       inkscape:swatch="solid"><stop
         style="stop-color:#b4b4b4;stop-opacity:1;"
         offset="0"
         id="stop7" /></linearGradient></defs><g
     inkscape:label="Layer 1"
     inkscape:groupmode="layer"
     id="layer1"><rect
       style="opacity:0;fill:#000000;fill-opacity:1;stroke:none;stroke-width:0.799999;stroke-linecap:square;stroke-linejoin:bevel;stroke-dasharray:none;stroke-opacity:1;paint-order:markers stroke fill"
       id="rect21"
       width="210.25626"
       height="118.38999"
       x="0"
       y="0"
       rx="1.4439415"
       ry="1.4439415" /><rect
       style="opacity:1;fill:#b4b4b4;fill-opacity:1;stroke:#888888;stroke-width:4;stroke-linecap:square;stroke-linejoin:bevel;stroke-dasharray:none;stroke-opacity:1;paint-order:markers stroke fill"
       id="rect4"
       width="194.94221"
       height="108.18732"
       x="7.6570206"
       y="5.1013451"
       ry="3.6221128"
       rx="3.6221125" /><circle
       style="opacity:1;fill:#d8d8d8;fill-opacity:1;stroke:#888888;stroke-width:2;stroke-linecap:square;stroke-linejoin:bevel;stroke-dasharray:none;stroke-opacity:1;paint-order:markers stroke fill"
       id="path7"
       cx="105.12813"
       cy="96.546143"
       r="7.0667996" /><rect
       style="opacity:1;fill:none;fill-opacity:1;stroke:#000000;stroke-width:0.8;stroke-linecap:square;stroke-linejoin:bevel;stroke-dasharray:none;stroke-opacity:1;paint-order:markers stroke fill"
       id="rect11"
       width="37.669544"
       height="13.08564"
       x="20.307447"
       y="90.003326"
       rx="1.4439415"
       ry="1.4439415" /><text
       xml:space="preserve"
       style="font-weight:bold;font-size:8.50754px;font-family:Arial;-inkscape-font-specification:'Arial Bold';letter-spacing:0px;word-spacing:0px;opacity:1;fill:none;fill-opacity:1;stroke:#000000;stroke-width:0.799998;stroke-linecap:square;stroke-linejoin:bevel;stroke-dasharray:none;stroke-opacity:1;paint-order:markers stroke fill"
       x="25.662249"
       y="99.589012"
       id="text11"><tspan
         sodipodi:role="line"
         id="tspan11"
         style="fill:#000000;fill-opacity:1;stroke:none;stroke-width:0.8"
         x="25.662249"
         y="99.589012">PRISM</tspan></text><g
       id="text12"
       style="font-weight:bold;font-size:6.35px;font-family:Arial;-inkscape-font-specification:'Arial Bold';letter-spacing:0px;word-spacing:0px;stroke-width:0.799999;stroke-linecap:square;stroke-linejoin:bevel;paint-order:markers stroke fill"
       aria-label="Multiband&#10;Neural&#10;Distortion"
       transform="translate(11.50486,11.17453)"><path
         style="stroke-width:0.8"
         d="m 153.74472,81.727966 v -4.545459 h 1.37356 l 0.82476,3.100586 0.81545,-3.100586 h 1.37666 v 4.545459 h -0.85266 V 78.14989 l -0.90227,3.578076 h -0.88367 l -0.89917,-3.578076 v 3.578076 z m 7.46311,0 v -0.492993 q -0.17983,0.26355 -0.47439,0.415479 -0.29145,0.151928 -0.61702,0.151928 -0.33176,0 -0.59531,-0.145727 -0.26355,-0.145728 -0.38137,-0.409278 -0.11782,-0.263549 -0.11782,-0.728637 v -2.083594 h 0.87126 v 1.513086 q 0,0.694531 0.0465,0.852661 0.0496,0.155029 0.17673,0.248047 0.12713,0.08992 0.32247,0.08992 0.22324,0 0.39997,-0.120923 0.17673,-0.124023 0.24185,-0.303857 0.0651,-0.182935 0.0651,-0.889868 v -1.389063 h 0.87126 v 3.292822 z m 1.71152,0 v -4.545459 h 0.87127 v 4.545459 z m 3.27422,-3.292822 v 0.694531 h -0.59531 v 1.327051 q 0,0.403076 0.0155,0.471289 0.0186,0.06511 0.0775,0.108521 0.062,0.04341 0.14883,0.04341 0.12092,0 0.35036,-0.08372 l 0.0744,0.675928 q -0.30386,0.130224 -0.68833,0.130224 -0.23565,0 -0.42478,-0.07751 -0.18914,-0.08062 -0.27906,-0.204639 -0.0868,-0.127124 -0.12092,-0.341064 -0.0279,-0.151929 -0.0279,-0.613916 v -1.435572 h -0.39998 v -0.694531 h 0.39998 V 77.78092 l 0.87436,-0.508496 v 1.16272 z m 0.60462,-0.446484 v -0.806153 h 0.87126 v 0.806153 z m 0,3.739306 v -3.292822 h 0.87126 v 3.292822 z m 1.72702,0 v -4.545459 h 0.87127 v 1.63711 q 0.40307,-0.458887 0.95498,-0.458887 0.60151,0 0.99529,0.437183 0.39377,0.434082 0.39377,1.249536 0,0.843359 -0.40308,1.299145 -0.39997,0.455786 -0.97358,0.455786 -0.28215,0 -0.5581,-0.139526 -0.27286,-0.142627 -0.47129,-0.418579 v 0.483691 z m 0.86507,-1.717724 q 0,0.511596 0.16123,0.756543 0.22634,0.347265 0.60151,0.347265 0.28836,0 0.48989,-0.244946 0.20464,-0.248047 0.20464,-0.778247 0,-0.564307 -0.20464,-0.812354 -0.20464,-0.251147 -0.524,-0.251147 -0.31315,0 -0.52089,0.244946 -0.20774,0.241846 -0.20774,0.73794 z m 3.7021,-0.570508 -0.79065,-0.142627 q 0.13332,-0.47749 0.45888,-0.706934 0.32557,-0.229443 0.96739,-0.229443 0.58291,0 0.86816,0.139526 0.28526,0.136426 0.39998,0.350367 0.11782,0.210839 0.11782,0.778247 l -0.009,1.016992 q 0,0.434082 0.0403,0.641821 0.0434,0.204639 0.15813,0.440283 h -0.86196 q -0.0341,-0.08682 -0.0837,-0.257348 -0.0217,-0.07752 -0.031,-0.10232 -0.22324,0.217041 -0.47749,0.325562 -0.25425,0.10852 -0.5426,0.10852 -0.5085,0 -0.80305,-0.275952 -0.29146,-0.275952 -0.29146,-0.697632 0,-0.279052 0.13333,-0.496093 0.13332,-0.220142 0.37207,-0.334864 0.24184,-0.117822 0.69453,-0.204638 0.61081,-0.114722 0.84646,-0.213941 v -0.08682 q 0,-0.251148 -0.12403,-0.356567 -0.12402,-0.108521 -0.46818,-0.108521 -0.23255,0 -0.36277,0.09302 -0.13023,0.08992 -0.21084,0.31936 z m 1.16582,0.706934 q -0.16743,0.05581 -0.5302,0.133325 -0.36277,0.07751 -0.47439,0.151928 -0.17053,0.120923 -0.17053,0.306958 0,0.182935 0.13642,0.31626 0.13643,0.133325 0.34727,0.133325 0.23564,0 0.44958,-0.155029 0.15813,-0.117822 0.20774,-0.288354 0.0341,-0.111622 0.0341,-0.424781 z m 4.70979,1.581298 h -0.87127 v -1.680517 q 0,-0.533301 -0.0558,-0.68833 -0.0558,-0.15813 -0.18293,-0.244947 -0.12403,-0.08682 -0.30076,-0.08682 -0.22634,0 -0.40618,0.124023 -0.17983,0.124024 -0.24804,0.328663 -0.0651,0.204638 -0.0651,0.756542 v 1.491382 h -0.87126 V 78.43514 h 0.80925 v 0.483691 q 0.43098,-0.558105 1.08521,-0.558105 0.28835,0 0.5271,0.10542 0.23874,0.102319 0.35967,0.26355 0.12402,0.16123 0.17053,0.365869 0.0496,0.204639 0.0496,0.586011 z m 3.90364,0 h -0.80926 v -0.483691 q -0.20154,0.282153 -0.47749,0.42168 -0.27285,0.136425 -0.5519,0.136425 -0.56741,0 -0.97359,-0.455786 -0.40307,-0.458886 -0.40307,-1.277441 0,-0.837158 0.39377,-1.27124 0.39378,-0.437183 0.99529,-0.437183 0.5519,0 0.95498,0.458887 v -1.63711 h 0.87127 z m -2.32544,-1.717724 q 0,0.527099 0.14572,0.762744 0.21084,0.341064 0.58911,0.341064 0.30076,0 0.5116,-0.254248 0.21084,-0.257348 0.21084,-0.765844 0,-0.567408 -0.20464,-0.815455 -0.20464,-0.251147 -0.524,-0.251147 -0.31006,0 -0.5209,0.248047 -0.20773,0.244946 -0.20773,0.734839 z"
         id="path19" /><path
         style="stroke-width:0.8"
         d="m 153.76642,87.665466 v -4.545459 h 0.89297 l 1.86035,3.035474 v -3.035474 h 0.85267 v 4.545459 h -0.92088 l -1.83244,-2.96416 v 2.96416 z m 6.47713,-1.047998 0.86816,0.145728 q -0.16743,0.47749 -0.5302,0.728637 -0.35967,0.248047 -0.90227,0.248047 -0.85886,0 -1.27124,-0.561206 -0.32556,-0.449585 -0.32556,-1.134814 0,-0.818555 0.42788,-1.280542 0.42788,-0.465088 1.08211,-0.465088 0.73483,0 1.15961,0.486792 0.42478,0.483691 0.40618,1.485181 h -2.18281 q 0.009,0.387573 0.21084,0.604614 0.20154,0.21394 0.50229,0.21394 0.20464,0 0.34417,-0.111621 0.13952,-0.111621 0.21084,-0.359668 z m 0.0496,-0.880566 q -0.009,-0.378272 -0.19534,-0.573609 -0.18603,-0.198437 -0.45268,-0.198437 -0.28526,0 -0.47129,0.207739 -0.18604,0.207739 -0.18294,0.564307 z m 3.7424,1.928564 v -0.492993 q -0.17983,0.26355 -0.47439,0.415479 -0.29145,0.151928 -0.61701,0.151928 -0.33176,0 -0.59531,-0.145727 -0.26355,-0.145728 -0.38138,-0.409278 -0.11782,-0.263549 -0.11782,-0.728637 v -2.083594 h 0.87127 v 1.513086 q 0,0.694531 0.0465,0.852661 0.0496,0.155029 0.17674,0.248047 0.12712,0.08992 0.32246,0.08992 0.22324,0 0.39997,-0.120923 0.17674,-0.124023 0.24185,-0.303857 0.0651,-0.182935 0.0651,-0.889869 v -1.389062 h 0.87127 v 3.292822 z m 2.54559,0 h -0.87127 v -3.292822 h 0.80925 v 0.468188 q 0.20774,-0.331762 0.37207,-0.437182 0.16744,-0.10542 0.37828,-0.10542 0.29765,0 0.5736,0.164331 l -0.26975,0.759644 q -0.22014,-0.142627 -0.40927,-0.142627 -0.18294,0 -0.31006,0.102319 -0.12713,0.09922 -0.20154,0.362768 -0.0713,0.26355 -0.0713,1.103809 z m 2.28823,-2.288232 -0.79065,-0.142627 q 0.13332,-0.47749 0.45889,-0.706934 0.32556,-0.229443 0.96738,-0.229443 0.58291,0 0.86816,0.139526 0.28526,0.136426 0.39998,0.350366 0.11782,0.21084 0.11782,0.778248 l -0.009,1.016992 q 0,0.434082 0.0403,0.641821 0.0434,0.204639 0.15813,0.440283 h -0.86197 q -0.0341,-0.08682 -0.0837,-0.257348 -0.0217,-0.07752 -0.031,-0.10232 -0.22324,0.217041 -0.47749,0.325562 -0.25425,0.10852 -0.5426,0.10852 -0.5085,0 -0.80305,-0.275952 -0.29146,-0.275952 -0.29146,-0.697632 0,-0.279052 0.13333,-0.496093 0.13332,-0.220142 0.37207,-0.334864 0.24184,-0.117822 0.69453,-0.204638 0.61081,-0.114722 0.84646,-0.213941 v -0.08682 q 0,-0.251148 -0.12402,-0.356568 -0.12403,-0.10852 -0.46819,-0.10852 -0.23255,0 -0.36277,0.09302 -0.13023,0.08992 -0.21084,0.319361 z m 1.16582,0.706933 q -0.16743,0.05581 -0.5302,0.133326 -0.36277,0.07751 -0.47439,0.151928 -0.17053,0.120923 -0.17053,0.306958 0,0.182935 0.13642,0.31626 0.13643,0.133325 0.34727,0.133325 0.23564,0 0.44958,-0.155029 0.15813,-0.117822 0.20774,-0.288355 0.0341,-0.111621 0.0341,-0.42478 z m 1.71462,1.581299 v -4.545459 h 0.87127 v 4.545459 z"
         id="path20" /><path
         style="stroke-width:0.8"
         d="m 153.75402,88.940841 h 1.67742 c 0.37827,0 0.66663,0.02894 0.86506,0.08682 0.26665,0.07855 0.49506,0.218074 0.68523,0.418579 0.19017,0.200504 0.33487,0.446483 0.43408,0.737939 0.0992,0.289388 0.14883,0.646989 0.14883,1.072803 0,0.374137 -0.0465,0.696598 -0.13952,0.967383 -0.11369,0.330728 -0.27596,0.598412 -0.4868,0.803051 -0.15916,0.155029 -0.37413,0.275952 -0.64492,0.362769 -0.20257,0.06408 -0.47336,0.09612 -0.81235,0.09612 h -1.72703 z m 0.91778,0.768945 v 3.010669 h 0.68523 c 0.25631,0 0.44131,-0.01447 0.555,-0.04341 0.14883,-0.03721 0.27182,-0.100252 0.36897,-0.189136 0.0992,-0.08888 0.17984,-0.234611 0.24185,-0.437182 0.062,-0.204639 0.093,-0.482658 0.093,-0.834058 0,-0.3514 -0.031,-0.621151 -0.093,-0.809253 -0.062,-0.188102 -0.14882,-0.334863 -0.26045,-0.440283 -0.11163,-0.10542 -0.25322,-0.176734 -0.42478,-0.21394 -0.12816,-0.02894 -0.37931,-0.04341 -0.75345,-0.04341 z m 3.66489,0.03721 v -0.806152 h 0.87126 v 0.806152 z m 0,3.739307 v -3.292822 h 0.87126 v 3.292822 z m 1.45727,-0.939477 0.87437,-0.133326 c 0.0372,0.169498 0.11265,0.29869 0.22634,0.387574 0.11369,0.08682 0.27285,0.130224 0.47749,0.130224 0.22531,0 0.39481,-0.04134 0.5085,-0.124023 0.0765,-0.05788 0.11472,-0.135395 0.11472,-0.232544 0,-0.06615 -0.0207,-0.120924 -0.062,-0.164331 -0.0434,-0.04134 -0.14055,-0.07958 -0.29146,-0.114722 -0.7028,-0.15503 -1.14825,-0.296623 -1.33635,-0.42478 -0.26045,-0.177768 -0.39067,-0.424781 -0.39067,-0.74104 0,-0.285254 0.11265,-0.525033 0.33796,-0.719336 0.22531,-0.194304 0.57464,-0.291455 1.048,-0.291455 0.45062,0 0.78548,0.07338 1.00459,0.220141 0.21911,0.146761 0.37,0.363802 0.45268,0.651123 l -0.82165,0.151929 c -0.0351,-0.128158 -0.10231,-0.226343 -0.20154,-0.294556 -0.0971,-0.06821 -0.23668,-0.102319 -0.41858,-0.102319 -0.22944,0 -0.39377,0.03204 -0.49299,0.09612 -0.0661,0.04547 -0.0992,0.104384 -0.0992,0.176734 0,0.06201 0.0289,0.114723 0.0868,0.15813 0.0786,0.05788 0.34933,0.139528 0.81235,0.244946 0.46509,0.10542 0.78961,0.234611 0.97358,0.387573 0.1819,0.155029 0.27285,0.371037 0.27285,0.648023 0,0.30179 -0.12609,0.561205 -0.37827,0.778247 -0.25218,0.21704 -0.62528,0.325561 -1.11931,0.325561 -0.44855,0 -0.80409,-0.09095 -1.0666,-0.272851 -0.26045,-0.181902 -0.19549,-0.677818 -0.5116,-0.74104 z m 5.34851,-2.353345 v 0.694531 h -0.59531 v 1.327051 c 0,0.268717 0.005,0.425813 0.0155,0.471289 0.0124,0.04341 0.0382,0.07958 0.0775,0.10852 0.0413,0.02894 0.0909,0.04341 0.14883,0.04341 0.0806,0 0.1974,-0.02791 0.35036,-0.08372 l 0.0744,0.675928 c -0.20257,0.08682 -0.43202,0.130224 -0.68833,0.130224 -0.1571,0 -0.29869,-0.02584 -0.42478,-0.07752 -0.12609,-0.05374 -0.21911,-0.121953 -0.27906,-0.204638 -0.0579,-0.08475 -0.0982,-0.198438 -0.12092,-0.341065 -0.0186,-0.101286 -0.0279,-0.305924 -0.0279,-0.613916 v -1.435571 h -0.39998 v -0.694531 h 0.39998 v -0.654219 l 0.87436,-0.508496 v 1.16272 z m 0.40308,1.599902 c 0,-0.289388 0.0713,-0.569475 0.21394,-0.840259 0.14263,-0.270784 0.34416,-0.47749 0.60461,-0.620117 0.26252,-0.142627 0.55501,-0.21394 0.87747,-0.21394 0.49816,0 0.9064,0.162264 1.22473,0.486792 0.31833,0.32246 0.47749,0.730704 0.47749,1.224731 0,0.49816 -0.16123,0.911572 -0.48369,1.240235 -0.32039,0.326594 -0.7245,0.489892 -1.21233,0.489892 -0.30179,0 -0.59014,-0.06821 -0.86506,-0.204639 -0.27285,-0.136426 -0.48059,-0.335897 -0.62322,-0.598413 -0.14263,-0.264584 -0.21394,-0.586011 -0.21394,-0.964282 z m 0.89297,0.04651 c 0,0.326595 0.0775,0.576709 0.23254,0.750342 0.15503,0.173632 0.34624,0.260449 0.57361,0.260449 0.22738,0 0.41755,-0.08682 0.57051,-0.260449 0.15503,-0.173633 0.23254,-0.425814 0.23254,-0.756543 0,-0.322462 -0.0775,-0.570509 -0.23254,-0.744141 -0.15296,-0.173633 -0.34313,-0.260449 -0.57051,-0.260449 -0.22737,0 -0.41858,0.08682 -0.57361,0.260449 -0.15503,0.173632 -0.23254,0.423746 -0.23254,0.750342 z m 4.02146,1.646411 h -0.87127 v -3.292822 h 0.80926 v 0.468188 c 0.13849,-0.221175 0.26252,-0.366902 0.37207,-0.437182 0.11162,-0.07028 0.23771,-0.10542 0.37827,-0.10542 0.19844,0 0.38964,0.05478 0.57361,0.164331 l -0.26975,0.759643 c -0.14676,-0.09508 -0.28319,-0.142627 -0.40928,-0.142627 -0.12196,0 -0.22531,0.03411 -0.31006,0.10232 -0.0848,0.06615 -0.15193,0.187069 -0.20154,0.362768 -0.0475,0.1757 -0.0713,0.543636 -0.0713,1.103809 z m 3.14709,-3.292822 v 0.694531 h -0.59531 v 1.327051 c 0,0.268717 0.005,0.425813 0.0155,0.471289 0.0124,0.04341 0.0382,0.07958 0.0775,0.10852 0.0413,0.02894 0.0909,0.04341 0.14883,0.04341 0.0806,0 0.1974,-0.02791 0.35036,-0.08372 l 0.0744,0.675928 c -0.20257,0.08682 -0.43202,0.130224 -0.68833,0.130224 -0.1571,0 -0.29869,-0.02584 -0.42478,-0.07752 -0.12609,-0.05374 -0.21911,-0.121953 -0.27906,-0.204638 -0.0579,-0.08475 -0.0982,-0.198438 -0.12092,-0.341065 -0.0186,-0.101286 -0.0279,-0.305924 -0.0279,-0.613916 v -1.435571 h -0.39998 v -0.694531 h 0.39998 v -0.65422 l 0.87436,-0.508496 v 1.16272 z m 0.60462,-0.446485 v -0.806152 h 0.87126 v 0.806152 z m 0,3.739307 v -3.292822 h 0.87126 v 3.292822 z m 1.56269,-1.69292 c 0,-0.289388 0.0713,-0.569475 0.21394,-0.840259 0.14263,-0.270784 0.34417,-0.47749 0.60462,-0.620117 0.26251,-0.142627 0.555,-0.21394 0.87746,-0.21394 0.49816,0 0.9064,0.162264 1.22473,0.486792 0.31833,0.32246 0.47749,0.730704 0.47749,1.224731 0,0.49816 -0.16123,0.911572 -0.48369,1.240235 -0.32039,0.326594 -0.7245,0.489892 -1.21233,0.489892 -0.30179,0 -0.59014,-0.06821 -0.86506,-0.204639 -0.27285,-0.136426 -0.48059,-0.335897 -0.62322,-0.598413 -0.14263,-0.264584 -0.21394,-0.586011 -0.21394,-0.964282 z m 0.89297,0.04651 c 0,0.326595 0.0775,0.576709 0.23254,0.750342 0.15503,0.173632 0.34624,0.260449 0.57361,0.260449 0.22738,0 0.41755,-0.08682 0.57051,-0.260449 0.15503,-0.173633 0.23254,-0.425814 0.23254,-0.756543 0,-0.322462 -0.0775,-0.570509 -0.23254,-0.744141 -0.15296,-0.173633 -0.34313,-0.260449 -0.57051,-0.260449 -0.22737,0 -0.41858,0.08682 -0.57361,0.260449 -0.15503,0.173632 -0.23254,0.423746 -0.23254,0.750342 z m 6.18257,1.646411 h -0.87126 v -1.680517 c 0,-0.355534 -0.0186,-0.584978 -0.0558,-0.688331 -0.0372,-0.10542 -0.0982,-0.187068 -0.18293,-0.244946 -0.0827,-0.05788 -0.18293,-0.08682 -0.30076,-0.08682 -0.15089,0 -0.28628,0.04134 -0.40617,0.124023 -0.11989,0.08268 -0.20258,0.192236 -0.24805,0.328662 -0.0434,0.136426 -0.0651,0.388607 -0.0651,0.756543 v 1.491382 h -0.87127 v -3.292822 h 0.80926 v 0.483691 c 0.28732,-0.37207 0.64905,-0.558105 1.0852,-0.558105 0.19224,0 0.36794,0.03514 0.5271,0.10542 0.15917,0.06821 0.27906,0.156062 0.35967,0.26355 0.0827,0.107486 0.13952,0.229443 0.17053,0.365869 0.0331,0.136425 0.0496,0.331762 0.0496,0.58601 z"
         id="path21"
         sodipodi:nodetypes="cscscscccsccccscccssscsccccccccccccccscscccsssscccscscccssscsccccsccsccscccsccccccccsscscsssccsssscscsssccccccsccsccsccccsccsccscccsccccccccccccccccccsscscsssccsssscscsssccsccsscscccccscccsc" /></g><g
       id="g3"
       style="stroke:#6e6e6e;stroke-width:0.99114;stroke-opacity:1"
       transform="matrix(1.0179589,0,0,1,-0.77228543,0)"><path
         style="fill:none;fill-opacity:1;stroke:#6e6e6e;stroke-width:0.792911;stroke-linecap:square;stroke-linejoin:bevel;stroke-dasharray:none;stroke-opacity:1;paint-order:markers stroke fill"
         d="M 43.002949,31.407941 H 193.48836"
         id="path24-0-5"
         sodipodi:nodetypes="cc" /><path
         style="fill:none;fill-opacity:1;stroke:#6e6e6e;stroke-width:0.792911;stroke-linecap:square;stroke-linejoin:bevel;stroke-dasharray:none;stroke-opacity:1;paint-order:markers stroke fill"
         d="M 43.002949,16.062098 H 193.48836"
         id="path24-0-5-0"
         sodipodi:nodetypes="cc" /></g><g
       id="g32"
       inkscape:label="linee"
       style="stroke:#6e6e6e;stroke-width:0.99114;stroke-opacity:1"
       transform="matrix(1.0179589,0,0,1,-0.77228543,0)"><path
         style="opacity:1;fill:none;fill-opacity:1;stroke:#6e6e6e;stroke-width:0.792911;stroke-linecap:square;stroke-linejoin:bevel;stroke-dasharray:none;stroke-opacity:1;paint-order:markers stroke fill"
         d="m 43.034981,51.175361 h 1.721401 l 2.247283,-3.89241 H 193.48836"
         id="path24"
         sodipodi:nodetypes="cccc" /><path
         style="fill:none;fill-opacity:1;stroke:#6e6e6e;stroke-width:0.792911;stroke-linecap:square;stroke-linejoin:bevel;stroke-dasharray:none;stroke-opacity:1;paint-order:markers stroke fill"
         d="m 43.034981,67.399969 h 1.721401 l 2.247283,3.89241 H 193.48836"
         id="path24-1"
         sodipodi:nodetypes="cccc" /><path
         style="fill:none;fill-opacity:1;stroke:#6e6e6e;stroke-width:0.792911;stroke-linecap:square;stroke-linejoin:bevel;stroke-dasharray:none;stroke-opacity:1;paint-order:markers stroke fill"
         d="M 43.002949,59.453792 H 193.48836"
         id="path24-0"
         sodipodi:nodetypes="cc" /></g><g
       id="g33"
       inkscape:label="template"
       style="display:none"><rect
         style="fill:#c83737;fill-opacity:1;stroke:none;stroke-width:0.799999;stroke-linecap:square;stroke-linejoin:bevel;stroke-dasharray:none;stroke-opacity:1;paint-order:markers stroke fill"
         id="rect22-0"
         width="8.3136864"
         height="32.406021"
         x="50.544296"
         y="42.76667"
         rx="1.4439414"
         ry="1.4439414" /><rect
         style="fill:#c83737;fill-opacity:1;stroke:none;stroke-width:0.799999;stroke-linecap:square;stroke-linejoin:bevel;stroke-dasharray:none;stroke-opacity:1;paint-order:markers stroke fill"
         id="rect22-0-2"
         width="8.3136864"
         height="32.406021"
         x="69.241295"
         y="42.76667"
         rx="1.4439414"
         ry="1.4439414" /><rect
         style="opacity:1;fill:#c83737;fill-opacity:1;stroke:none;stroke-width:0.799999;stroke-linecap:square;stroke-linejoin:bevel;stroke-dasharray:none;stroke-opacity:1;paint-order:markers stroke fill"
         id="rect23"
         width="8.3136892"
         height="8.6511011"
         x="50.544296"
         y="16.528473"
         rx="1.4439415"
         ry="1.4439415" /><rect
         style="fill:#c83737;fill-opacity:1;stroke:none;stroke-width:0.799999;stroke-linecap:square;stroke-linejoin:bevel;stroke-dasharray:none;stroke-opacity:1;paint-order:markers stroke fill"
         id="rect23-5"
         width="8.3136892"
         height="8.6511011"
         x="50.544296"
         y="27.174074"
         rx="1.4439415"
         ry="1.4439415" /></g><text
       xml:space="preserve"
       style="font-weight:bold;font-size:5.64444px;font-family:Arial;-inkscape-font-specification:'Arial Bold';letter-spacing:0px;word-spacing:2.64583px;opacity:1;fill:#180707;fill-opacity:1;stroke:none;stroke-width:0.799999;stroke-linecap:square;stroke-linejoin:bevel;stroke-dasharray:none;stroke-opacity:1;paint-order:markers stroke fill"
       x="14.781404"
       y="53.195564"
       id="text23"><tspan
         sodipodi:role="line"
         id="tspan23"
         style="font-size:5.64444px;letter-spacing:0px;fill:#180707;fill-opacity:1;stroke-width:0.8"
         x="14.781404"
         y="53.195564">Overdrive</tspan></text><text
       xml:space="preserve"
       style="font-weight:bold;font-size:5.64444px;font-family:Arial;-inkscape-font-specification:'Arial Bold';letter-spacing:0px;word-spacing:2.64583px;fill:#180707;fill-opacity:1;stroke:none;stroke-width:0.799999;stroke-linecap:square;stroke-linejoin:bevel;stroke-dasharray:none;stroke-opacity:1;paint-order:markers stroke fill"
       x="28.488052"
       y="60.95681"
       id="text23-0"><tspan
         sodipodi:role="line"
         id="tspan23-0"
         style="font-size:5.64444px;letter-spacing:0px;fill:#180707;fill-opacity:1;stroke-width:0.8"
         x="28.488052"
         y="60.95681">Fuzz</tspan></text><text
       xml:space="preserve"
       style="font-weight:bold;font-size:5.64444px;font-family:Arial;-inkscape-font-specification:'Arial Bold';letter-spacing:0px;word-spacing:2.64583px;fill:#180707;fill-opacity:1;stroke:none;stroke-width:0.799999;stroke-linecap:square;stroke-linejoin:bevel;stroke-dasharray:none;stroke-opacity:1;paint-order:markers stroke fill"
       x="28.423414"
       y="18.327866"
       id="text23-0-3"><tspan
         sodipodi:role="line"
         id="tspan23-0-12"
         style="font-size:5.64444px;letter-spacing:0px;fill:#180707;fill-opacity:1;stroke-width:0.8"
         x="28.423414"
         y="18.327866">Gain</tspan></text><text
       xml:space="preserve"
       style="font-weight:bold;font-size:5.64444px;font-family:Arial;-inkscape-font-specification:'Arial Bold';letter-spacing:0px;word-spacing:2.64583px;fill:#180707;fill-opacity:1;stroke:none;stroke-width:0.799999;stroke-linecap:square;stroke-linejoin:bevel;stroke-dasharray:none;stroke-opacity:1;paint-order:markers stroke fill"
       x="27.894249"
       y="33.144547"
       id="text23-0-3-4"><tspan
         sodipodi:role="line"
         id="tspan23-0-12-6"
         style="font-size:5.64444px;letter-spacing:0px;fill:#180707;fill-opacity:1;stroke-width:0.8"
         x="27.894249"
         y="33.144547">Tone</tspan></text><text
       xml:space="preserve"
       style="font-weight:bold;font-size:5.64444px;font-family:Arial;-inkscape-font-specification:'Arial Bold';letter-spacing:0px;word-spacing:2.64583px;fill:#180707;fill-opacity:1;stroke:none;stroke-width:0.799999;stroke-linecap:square;stroke-linejoin:bevel;stroke-dasharray:none;stroke-opacity:1;paint-order:markers stroke fill"
       x="14.641538"
       y="68.987099"
       id="text23-0-8"><tspan
         sodipodi:role="line"
         id="tspan23-0-1"
         style="font-size:5.64444px;letter-spacing:0px;fill:#180707;fill-opacity:1;stroke-width:0.8"
         x="14.641538"
         y="68.987099">Distortion</tspan></text><circle
       style="display:none;fill:#180707;stroke:#6e6e6e;stroke-width:0.799999;stroke-linecap:square;stroke-linejoin:bevel;paint-order:markers stroke fill"
       id="path1"
       cx="54.636459"
       cy="16.536455"
       r="3.7010422" /><g
       id="g1"
       transform="translate(0,-4.2333335)"
       style="display:none"><rect
         style="opacity:0;fill:#ff1e00;fill-opacity:1;stroke:none;stroke-width:0.799999;stroke-linecap:square;stroke-linejoin:bevel;stroke-dasharray:none;paint-order:markers stroke fill"
         id="rect3"
         width="13.802313"
         height="13.835279"
         x="47.735302"
         y="13.852152" /><rect
         style="display:inline;fill:#000000;fill-opacity:1;stroke:none;stroke-width:0;stroke-dasharray:none;stroke-opacity:1;paint-order:markers stroke fill"
         id="rect8-79-61-8"
         width="0.59113336"
         height="1.9225249"
         x="-24.246828"
         y="-59.809223"
         inkscape:transform-center-x="-3.9114368"
         inkscape:transform-center-y="3.9114422"
         transform="rotate(135)" /><rect
         style="display:inline;fill:#000000;fill-opacity:1;stroke:none;stroke-width:0;stroke-dasharray:none;stroke-opacity:1;paint-order:markers stroke fill"
         id="rect8-79-61-8-2"
         width="0.59113336"
         height="1.9225249"
         x="-53.611912"
         y="17.458393"
         inkscape:transform-center-x="3.9114428"
         inkscape:transform-center-y="3.911436"
         transform="rotate(-135)" /><rect
         style="display:inline;fill:#000000;fill-opacity:1;stroke:none;stroke-width:0;stroke-dasharray:none;stroke-opacity:1;paint-order:markers stroke fill"
         id="rect8-79-61-0-4"
         width="0.59113336"
         height="1.9225249"
         x="57.812653"
         y="-12.79623"
         transform="rotate(27)" /><rect
         style="display:inline;fill:#000000;fill-opacity:1;stroke:none;stroke-width:0;stroke-dasharray:none;stroke-opacity:1;paint-order:markers stroke fill"
         id="rect8-79-61-0-4-4-8"
         width="0.59113336"
         height="1.9225249"
         x="28.760101"
         y="-57.20845"
         transform="rotate(81)" /><rect
         style="display:inline;fill:#000000;fill-opacity:1;stroke:none;stroke-width:0;stroke-dasharray:none;stroke-opacity:1;paint-order:markers stroke fill"
         id="rect8-79-61-0-4-7"
         width="0.59113336"
         height="1.9225249"
         x="-39.547695"
         y="36.8176"
         transform="matrix(-0.89100652,0.4539905,0.4539905,0.89100652,0,0)" /><rect
         style="display:inline;fill:#000000;fill-opacity:1;stroke:none;stroke-width:0;stroke-dasharray:none;stroke-opacity:1;paint-order:markers stroke fill"
         id="rect8-79-61-0-4-4-8-2"
         width="0.59113336"
         height="1.9225249"
         x="11.671486"
         y="50.720001"
         transform="matrix(-0.15643447,0.98768834,0.98768834,0.15643447,0,0)" /></g><g
       id="g2"
       transform="translate(9.5367432e-7,10.33491)"
       style="display:none"><rect
         style="opacity:0;fill:#ff1e00;fill-opacity:1;stroke:none;stroke-width:0.799999;stroke-linecap:square;stroke-linejoin:bevel;stroke-dasharray:none;paint-order:markers stroke fill"
         id="rect3-4"
         width="13.802313"
         height="13.835279"
         x="47.735302"
         y="13.852152" /><rect
         style="display:inline;fill:#000000;fill-opacity:1;stroke:none;stroke-width:0;stroke-dasharray:none;stroke-opacity:1;paint-order:markers stroke fill"
         id="rect8-79-61-8-0"
         width="0.59113336"
         height="1.9225249"
         x="-24.246828"
         y="-59.809223"
         inkscape:transform-center-x="-3.9114368"
         inkscape:transform-center-y="3.9114422"
         transform="rotate(135)" /><rect
         style="display:inline;fill:#000000;fill-opacity:1;stroke:none;stroke-width:0;stroke-dasharray:none;stroke-opacity:1;paint-order:markers stroke fill"
         id="rect8-79-61-8-2-9"
         width="0.59113336"
         height="1.9225249"
         x="-53.611912"
         y="17.458393"
         inkscape:transform-center-x="3.9114428"
         inkscape:transform-center-y="3.911436"
         transform="rotate(-135)" /><rect
         style="display:inline;fill:#000000;fill-opacity:1;stroke:none;stroke-width:0;stroke-dasharray:none;stroke-opacity:1;paint-order:markers stroke fill"
         id="rect8-79-61-0-4-3"
         width="0.59113336"
         height="1.9225249"
         x="57.812653"
         y="-12.79623"
         transform="rotate(27)" /><rect
         style="display:inline;fill:#000000;fill-opacity:1;stroke:none;stroke-width:0;stroke-dasharray:none;stroke-opacity:1;paint-order:markers stroke fill"
         id="rect8-79-61-0-4-4-8-9"
         width="0.59113336"
         height="1.9225249"
         x="28.760101"
         y="-57.20845"
         transform="rotate(81)" /><rect
         style="display:inline;fill:#000000;fill-opacity:1;stroke:none;stroke-width:0;stroke-dasharray:none;stroke-opacity:1;paint-order:markers stroke fill"
         id="rect8-79-61-0-4-7-6"
         width="0.59113336"
         height="1.9225249"
         x="-39.547695"
         y="36.8176"
         transform="matrix(-0.89100652,0.4539905,0.4539905,0.89100652,0,0)" /><rect
         style="display:inline;fill:#000000;fill-opacity:1;stroke:none;stroke-width:0;stroke-dasharray:none;stroke-opacity:1;paint-order:markers stroke fill"
         id="rect8-79-61-0-4-4-8-2-6"
         width="0.59113336"
         height="1.9225249"
         x="11.671486"
         y="50.720001"
         transform="matrix(-0.15643447,0.98768834,0.98768834,0.15643447,0,0)" /></g></g></svg>
